<mxfile host="app.diagrams.net" agent="Mozilla/5.0 (Windows NT 10.0; Win64; x64) AppleWebKit/537.36 (KHTML, like Gecko) Chrome/133.0.0.0 Safari/537.36" version="26.0.16">
  <diagram name="Page-1" id="Z6reIBk4Eo2_KYYy0tgN">
    <mxGraphModel dx="1182" dy="446" grid="1" gridSize="10" guides="1" tooltips="1" connect="1" arrows="1" fold="1" page="1" pageScale="1" pageWidth="827" pageHeight="1169" math="0" shadow="0">
      <root>
        <mxCell id="0" />
        <mxCell id="1" parent="0" />
        <mxCell id="ChaxWRFERCR86XcaeHIO-1" value="&lt;font style=&quot;font-size: 18px;&quot;&gt;Unity&lt;/font&gt;" style="rounded=1;whiteSpace=wrap;html=1;" vertex="1" parent="1">
          <mxGeometry x="100" y="330" width="120" height="60" as="geometry" />
        </mxCell>
        <mxCell id="ChaxWRFERCR86XcaeHIO-2" value="&lt;font style=&quot;font-size: 18px;&quot;&gt;ESP32&lt;/font&gt;" style="rounded=1;whiteSpace=wrap;html=1;" vertex="1" parent="1">
          <mxGeometry x="370" y="330" width="120" height="60" as="geometry" />
        </mxCell>
        <mxCell id="ChaxWRFERCR86XcaeHIO-3" value="&lt;span style=&quot;font-size: 18px;&quot;&gt;Drivers&lt;/span&gt;" style="rounded=1;whiteSpace=wrap;html=1;" vertex="1" parent="1">
          <mxGeometry x="665" y="330" width="120" height="60" as="geometry" />
        </mxCell>
        <mxCell id="ChaxWRFERCR86XcaeHIO-17" value="" style="endArrow=classic;html=1;rounded=0;entryX=1.021;entryY=0.657;entryDx=0;entryDy=0;entryPerimeter=0;" edge="1" parent="1">
          <mxGeometry width="50" height="50" relative="1" as="geometry">
            <mxPoint x="370" y="374" as="sourcePoint" />
            <mxPoint x="252.51999999999998" y="374.4200000000001" as="targetPoint" />
          </mxGeometry>
        </mxCell>
        <mxCell id="ChaxWRFERCR86XcaeHIO-19" value="" style="endArrow=classic;html=1;rounded=0;exitX=0.997;exitY=0.339;exitDx=0;exitDy=0;entryX=0;entryY=0.75;entryDx=0;entryDy=0;exitPerimeter=0;" edge="1" parent="1">
          <mxGeometry width="50" height="50" relative="1" as="geometry">
            <mxPoint x="219.6400000000001" y="349.34000000000003" as="sourcePoint" />
            <mxPoint x="340" y="349" as="targetPoint" />
          </mxGeometry>
        </mxCell>
        <mxCell id="ChaxWRFERCR86XcaeHIO-20" value="Live Texture Info:&lt;div&gt;- Temperature&lt;/div&gt;&lt;div&gt;- Large bumps (Low freq aspect)&lt;/div&gt;&lt;div&gt;- Roughness (High freq aspect)&lt;/div&gt;&lt;div&gt;- Finger depth in material&lt;/div&gt;&lt;div&gt;- Movement speed&lt;/div&gt;" style="text;html=1;align=left;verticalAlign=middle;resizable=0;points=[];autosize=1;strokeColor=none;fillColor=none;" vertex="1" parent="1">
          <mxGeometry x="222" y="254" width="200" height="100" as="geometry" />
        </mxCell>
        <mxCell id="ChaxWRFERCR86XcaeHIO-23" value="Finger Position" style="text;html=1;align=center;verticalAlign=middle;resizable=0;points=[];autosize=1;strokeColor=none;fillColor=none;" vertex="1" parent="1">
          <mxGeometry x="263" y="352" width="100" height="30" as="geometry" />
        </mxCell>
        <mxCell id="ChaxWRFERCR86XcaeHIO-25" value="" style="endArrow=classic;html=1;rounded=0;exitX=0;exitY=0.5;exitDx=0;exitDy=0;" edge="1" parent="1" source="ChaxWRFERCR86XcaeHIO-3">
          <mxGeometry width="50" height="50" relative="1" as="geometry">
            <mxPoint x="655" y="374" as="sourcePoint" />
            <mxPoint x="580" y="415" as="targetPoint" />
            <Array as="points">
              <mxPoint x="610" y="360" />
              <mxPoint x="610" y="415" />
              <mxPoint x="590" y="415" />
            </Array>
          </mxGeometry>
        </mxCell>
        <mxCell id="ChaxWRFERCR86XcaeHIO-26" value="" style="endArrow=classic;html=1;rounded=0;exitX=0.75;exitY=0;exitDx=0;exitDy=0;" edge="1" parent="1" source="ChaxWRFERCR86XcaeHIO-2">
          <mxGeometry width="50" height="50" relative="1" as="geometry">
            <mxPoint x="365.03999999999996" y="329.58" as="sourcePoint" />
            <mxPoint x="690" y="310" as="targetPoint" />
            <Array as="points">
              <mxPoint x="460" y="270" />
              <mxPoint x="690" y="270" />
            </Array>
          </mxGeometry>
        </mxCell>
        <mxCell id="ChaxWRFERCR86XcaeHIO-28" value="Peltier&lt;div&gt;Temperature&lt;/div&gt;" style="text;html=1;align=left;verticalAlign=middle;resizable=0;points=[];autosize=1;strokeColor=none;fillColor=none;" vertex="1" parent="1">
          <mxGeometry x="622" y="390" width="90" height="40" as="geometry" />
        </mxCell>
        <mxCell id="ChaxWRFERCR86XcaeHIO-29" value="&lt;font style=&quot;font-size: 18px;&quot;&gt;SteamVR&lt;/font&gt;" style="rounded=1;whiteSpace=wrap;html=1;" vertex="1" parent="1">
          <mxGeometry x="100" y="440" width="120" height="60" as="geometry" />
        </mxCell>
        <mxCell id="ChaxWRFERCR86XcaeHIO-30" value="" style="endArrow=classic;html=1;rounded=0;entryX=0.5;entryY=1;entryDx=0;entryDy=0;" edge="1" parent="1">
          <mxGeometry width="50" height="50" relative="1" as="geometry">
            <mxPoint x="110" y="440" as="sourcePoint" />
            <mxPoint x="110.36" y="390" as="targetPoint" />
          </mxGeometry>
        </mxCell>
        <mxCell id="ChaxWRFERCR86XcaeHIO-32" value="HMD &amp;amp; Hands&lt;div&gt;Position &amp;amp; Orientation&lt;/div&gt;" style="text;html=1;align=left;verticalAlign=middle;resizable=0;points=[];autosize=1;strokeColor=none;fillColor=none;" vertex="1" parent="1">
          <mxGeometry x="113" y="397" width="140" height="40" as="geometry" />
        </mxCell>
        <mxCell id="ChaxWRFERCR86XcaeHIO-33" value="UDP" style="text;html=1;align=center;verticalAlign=middle;whiteSpace=wrap;rounded=0;" vertex="1" parent="1">
          <mxGeometry x="325" y="335" width="60" height="30" as="geometry" />
        </mxCell>
        <mxCell id="ChaxWRFERCR86XcaeHIO-34" value="UDP" style="text;html=1;align=center;verticalAlign=middle;whiteSpace=wrap;rounded=0;" vertex="1" parent="1">
          <mxGeometry x="207" y="360" width="60" height="30" as="geometry" />
        </mxCell>
        <mxCell id="ChaxWRFERCR86XcaeHIO-36" value="" style="endArrow=classic;html=1;rounded=0;exitX=0.833;exitY=-0.007;exitDx=0;exitDy=0;exitPerimeter=0;" edge="1" parent="1" source="ChaxWRFERCR86XcaeHIO-2">
          <mxGeometry width="50" height="50" relative="1" as="geometry">
            <mxPoint x="467" y="330" as="sourcePoint" />
            <mxPoint x="680" y="310" as="targetPoint" />
            <Array as="points">
              <mxPoint x="470" y="290" />
              <mxPoint x="680" y="290" />
            </Array>
          </mxGeometry>
        </mxCell>
        <mxCell id="ChaxWRFERCR86XcaeHIO-37" value="PWM" style="text;html=1;align=center;verticalAlign=middle;whiteSpace=wrap;rounded=0;" vertex="1" parent="1">
          <mxGeometry x="657" y="305" width="60" height="30" as="geometry" />
        </mxCell>
        <mxCell id="ChaxWRFERCR86XcaeHIO-39" value="" style="endArrow=classic;html=1;rounded=0;exitX=1;exitY=0.25;exitDx=0;exitDy=0;" edge="1" parent="1" source="ChaxWRFERCR86XcaeHIO-2">
          <mxGeometry width="50" height="50" relative="1" as="geometry">
            <mxPoint x="490" y="350" as="sourcePoint" />
            <mxPoint x="630" y="345" as="targetPoint" />
          </mxGeometry>
        </mxCell>
        <mxCell id="ChaxWRFERCR86XcaeHIO-40" value="PWM" style="text;html=1;align=center;verticalAlign=middle;whiteSpace=wrap;rounded=0;" vertex="1" parent="1">
          <mxGeometry x="618" y="330" width="60" height="30" as="geometry" />
        </mxCell>
        <mxCell id="ChaxWRFERCR86XcaeHIO-41" value="Voltage" style="text;html=1;align=center;verticalAlign=middle;whiteSpace=wrap;rounded=0;" vertex="1" parent="1">
          <mxGeometry x="528" y="404" width="60" height="30" as="geometry" />
        </mxCell>
        <mxCell id="ChaxWRFERCR86XcaeHIO-42" value="Pressure (Servo Angle)" style="text;html=1;align=center;verticalAlign=middle;whiteSpace=wrap;rounded=0;" vertex="1" parent="1">
          <mxGeometry x="492" y="321" width="130" height="30" as="geometry" />
        </mxCell>
        <mxCell id="ChaxWRFERCR86XcaeHIO-43" value="ADC" style="rounded=1;whiteSpace=wrap;html=1;" vertex="1" parent="1">
          <mxGeometry x="494" y="409" width="40" height="20" as="geometry" />
        </mxCell>
        <mxCell id="ChaxWRFERCR86XcaeHIO-44" value="" style="endArrow=classic;html=1;rounded=0;entryX=0.75;entryY=1;entryDx=0;entryDy=0;exitX=0;exitY=0.5;exitDx=0;exitDy=0;" edge="1" parent="1" source="ChaxWRFERCR86XcaeHIO-43" target="ChaxWRFERCR86XcaeHIO-2">
          <mxGeometry width="50" height="50" relative="1" as="geometry">
            <mxPoint x="470" y="440" as="sourcePoint" />
            <mxPoint x="470" y="440" as="targetPoint" />
            <Array as="points">
              <mxPoint x="460" y="419" />
            </Array>
          </mxGeometry>
        </mxCell>
        <mxCell id="ChaxWRFERCR86XcaeHIO-45" value="" style="endArrow=classic;html=1;rounded=0;exitX=-0.003;exitY=0.838;exitDx=0;exitDy=0;exitPerimeter=0;" edge="1" parent="1" source="ChaxWRFERCR86XcaeHIO-3">
          <mxGeometry width="50" height="50" relative="1" as="geometry">
            <mxPoint x="510" y="480" as="sourcePoint" />
            <mxPoint x="580" y="425" as="targetPoint" />
            <Array as="points">
              <mxPoint x="620" y="380" />
              <mxPoint x="620" y="425" />
              <mxPoint x="590" y="425" />
            </Array>
          </mxGeometry>
        </mxCell>
        <mxCell id="ChaxWRFERCR86XcaeHIO-46" value="Flex" style="text;html=1;align=center;verticalAlign=middle;whiteSpace=wrap;rounded=0;" vertex="1" parent="1">
          <mxGeometry x="564" y="370" width="60" height="30" as="geometry" />
        </mxCell>
        <mxCell id="ChaxWRFERCR86XcaeHIO-47" value="Vibration (Low &amp;amp; High Frequency)" style="text;html=1;align=center;verticalAlign=middle;whiteSpace=wrap;rounded=0;" vertex="1" parent="1">
          <mxGeometry x="466" y="265" width="224" height="30" as="geometry" />
        </mxCell>
        <mxCell id="ChaxWRFERCR86XcaeHIO-50" value="" style="endArrow=classic;html=1;rounded=0;" edge="1" parent="1">
          <mxGeometry width="50" height="50" relative="1" as="geometry">
            <mxPoint x="430" y="330" as="sourcePoint" />
            <mxPoint x="750" y="310" as="targetPoint" />
            <Array as="points">
              <mxPoint x="430" y="250" />
              <mxPoint x="750" y="250" />
            </Array>
          </mxGeometry>
        </mxCell>
        <mxCell id="ChaxWRFERCR86XcaeHIO-51" value="Temperature" style="text;html=1;align=center;verticalAlign=middle;whiteSpace=wrap;rounded=0;" vertex="1" parent="1">
          <mxGeometry x="490" y="227" width="192" height="30" as="geometry" />
        </mxCell>
        <mxCell id="ChaxWRFERCR86XcaeHIO-53" value="H-Bridge Input" style="text;html=1;align=center;verticalAlign=middle;whiteSpace=wrap;rounded=0;" vertex="1" parent="1">
          <mxGeometry x="712" y="305" width="80" height="30" as="geometry" />
        </mxCell>
      </root>
    </mxGraphModel>
  </diagram>
</mxfile>
